<?xml version="1.0" standalone="no"?>
<!DOCTYPE svg PUBLIC "-//W3C//DTD SVG 20010904//EN"
 "http://www.w3.org/TR/2001/REC-SVG-20010904/DTD/svg10.dtd">
<svg version="1.0" xmlns="http://www.w3.org/2000/svg"
 width="300.000000pt" height="300.000000pt" viewBox="0 0 300.000000 300.000000"
 preserveAspectRatio="xMidYMid meet">
<metadata>
Created by potrace 1.10, written by Peter Selinger 2001-2011
</metadata>
<g transform="translate(0.000000,300.000000) scale(0.100000,-0.100000)"
fill="#000000" stroke="none">
<path d="M1475 2705 c-22 -8 -58 -14 -80 -14 -22 -1 -51 -8 -63 -17 -22 -15
-47 -15 -84 1 -12 4 -30 -5 -60 -33 -54 -50 -78 -62 -120 -62 -40 0 -73 -21
-93 -60 -9 -17 -29 -36 -45 -45 -18 -9 -37 -32 -49 -59 -10 -24 -30 -50 -43
-56 -52 -27 -68 -51 -68 -102 0 -37 -4 -51 -20 -60 -27 -17 -25 -54 5 -103 16
-25 25 -55 25 -81 0 -30 7 -49 26 -70 46 -52 56 -87 43 -154 -17 -88 -9 -202
18 -238 33 -44 37 -85 37 -355 1 -246 1 -249 24 -267 12 -10 18 -21 13 -24 -5
-4 -12 -20 -16 -37 -8 -35 18 -84 41 -75 11 4 13 0 8 -19 -7 -30 16 -70 46
-80 11 -4 20 -15 20 -27 0 -26 62 -88 89 -88 14 0 21 -6 21 -19 0 -26 46 -61
81 -61 24 0 29 -4 29 -24 0 -32 18 -45 76 -53 31 -4 54 -14 65 -27 15 -18 31
-22 102 -24 79 -4 85 -3 103 20 14 18 33 27 68 31 58 8 76 21 76 53 0 20 5 24
29 24 37 0 81 35 81 65 0 18 4 22 20 18 25 -7 90 55 90 85 0 12 9 23 20 27 30
10 53 50 46 80 -5 18 -3 23 7 19 30 -11 55 61 35 99 -6 13 -3 25 12 44 19 25
21 38 20 247 0 122 4 237 9 256 20 72 24 85 33 96 5 7 4 22 -1 38 -6 15 -8 74
-4 143 5 100 10 123 28 148 40 54 55 110 55 201 0 56 -5 95 -15 114 -13 24
-13 38 -4 75 13 52 4 72 -63 136 -36 34 -39 41 -37 82 3 54 -10 73 -56 81 -24
5 -39 16 -53 40 -17 28 -29 36 -72 45 -28 6 -68 11 -88 11 -20 1 -48 7 -62 15
-14 8 -46 14 -72 15 -26 0 -70 9 -98 20 -58 23 -78 23 -135 5z m140 -40 c17
-8 55 -16 85 -18 30 -3 75 -10 100 -15 25 -6 70 -16 100 -22 42 -8 63 -19 89
-45 19 -19 42 -35 51 -35 24 0 40 -22 45 -60 7 -57 17 -90 24 -85 5 2 23 -14
41 -36 24 -31 32 -50 32 -80 -1 -21 -3 -43 -7 -48 -3 -5 -1 -12 4 -15 5 -3 12
-32 16 -63 4 -32 9 -69 11 -83 6 -43 -18 -123 -52 -176 -32 -47 -34 -57 -35
-135 0 -79 -1 -82 -14 -54 -7 17 -21 57 -30 90 -8 33 -25 77 -35 97 -11 20
-20 42 -20 48 0 13 -72 79 -108 98 -44 24 -194 27 -282 5 -88 -21 -154 -17
-233 15 -39 16 -79 15 -156 -4 -122 -30 -196 -82 -240 -169 -34 -67 -36 -75
-57 -212 -3 -23 -11 -43 -16 -43 -5 0 -7 -4 -3 -10 10 -16 -6 -59 -19 -54 -26
10 -36 78 -34 214 l3 135 -32 46 c-18 26 -33 58 -33 71 0 34 -20 88 -32 88 -5
0 -7 4 -4 9 4 5 2 11 -3 13 -5 1 -2 21 6 43 8 22 18 56 20 75 7 40 30 80 47
80 7 0 28 21 46 48 19 26 55 69 82 95 26 26 48 52 48 57 0 5 17 12 38 15 60
11 66 13 123 56 48 36 59 40 92 35 21 -4 44 -3 50 1 15 9 27 12 100 24 32 5
66 13 75 19 19 12 73 5 117 -15z m-185 -655 c64 -25 114 -25 215 0 239 59 352
-14 416 -270 29 -117 34 -367 9 -455 -27 -94 -77 -208 -134 -302 -59 -98 -76
-111 -76 -60 0 18 -10 53 -23 77 -43 82 -130 105 -372 97 -89 -3 -176 -10
-197 -17 -59 -20 -100 -70 -113 -137 l-12 -58 -34 48 c-46 66 -95 157 -137
257 -35 85 -35 86 -33 221 1 75 6 152 12 170 5 19 16 73 23 121 21 135 76 231
159 275 99 54 213 66 297 33z m654 -938 c0 -59 -6 -97 -17 -118 -9 -17 -16
-50 -15 -74 0 -31 -5 -47 -18 -57 -10 -7 -15 -13 -11 -13 11 0 -22 -60 -54
-100 -16 -19 -29 -39 -29 -45 0 -5 -12 -19 -26 -30 -15 -11 -48 -41 -74 -67
-27 -27 -56 -48 -65 -48 -19 0 -45 -23 -45 -40 0 -13 -42 -30 -74 -30 -12 0
-37 -11 -56 -25 -46 -34 -143 -36 -185 -4 -15 12 -40 22 -56 23 -16 1 -29 4
-29 9 0 4 -6 7 -14 7 -8 0 -24 13 -36 29 -12 18 -31 31 -48 33 -17 2 -34 14
-47 34 -11 18 -39 44 -63 59 -23 15 -45 37 -48 50 -3 12 -19 35 -35 51 -16 15
-34 45 -40 66 -5 21 -14 36 -18 33 -17 -10 -34 54 -21 76 4 6 -2 34 -13 62
-14 37 -20 73 -19 126 1 41 4 77 8 80 9 9 45 -40 51 -71 3 -15 12 -33 19 -39
8 -6 14 -16 14 -22 0 -14 46 -83 79 -119 43 -49 63 -36 91 57 11 39 59 85 88
85 23 0 12 -17 -25 -36 -20 -10 -37 -28 -39 -38 -1 -10 -7 -22 -12 -25 -12 -8
-26 -68 -23 -104 3 -45 26 -91 65 -130 20 -20 36 -33 36 -29 0 4 4 2 8 -3 9
-14 72 -58 72 -51 0 3 11 1 25 -4 20 -8 27 -6 31 5 4 8 10 13 14 10 5 -3 13 2
18 11 11 19 72 48 72 34 0 -6 7 -10 15 -10 8 0 15 -3 15 -7 0 -5 15 -18 33
-31 32 -21 35 -22 68 -6 19 9 44 26 57 37 12 11 22 17 22 13 0 -16 72 64 88
98 23 46 20 111 -7 164 -20 39 -73 92 -92 92 -6 0 -8 4 -4 10 3 6 16 5 33 -2
35 -15 63 -39 57 -48 -3 -4 1 -10 9 -13 7 -3 16 -22 19 -42 7 -41 23 -65 43
-65 20 0 68 57 96 112 13 26 27 48 31 48 5 0 5 5 2 10 -3 6 -1 10 4 10 6 0 11
5 11 11 0 6 10 33 22 60 31 66 43 49 42 -59z m-402 -47 c60 -21 93 -55 113
-116 24 -70 14 -111 -40 -164 -46 -46 -116 -95 -137 -95 -7 0 -28 16 -45 35
-26 28 -40 35 -69 35 -28 0 -42 -7 -67 -35 -17 -19 -38 -35 -46 -35 -22 0
-146 94 -168 126 -20 31 -22 119 -3 156 31 59 86 94 180 112 51 10 235 -3 282
-19z"/>
<path d="M1180 1809 c-38 -16 -60 -40 -60 -65 0 -35 32 -39 76 -9 41 28 64 26
102 -8 27 -26 57 -13 57 23 0 49 -110 87 -175 59z"/>
<path d="M1755 1786 c-65 -29 -86 -88 -34 -94 15 -2 32 5 44 18 23 26 65 26
98 0 31 -25 53 -25 66 -3 14 25 -3 49 -49 73 -45 23 -82 25 -125 6z"/>
<path d="M1180 1532 c-43 -35 -16 -114 37 -110 54 5 75 64 36 102 -30 31 -43
32 -73 8z m35 -22 c-3 -5 1 -10 9 -10 20 0 21 -29 2 -36 -8 -3 -22 -2 -30 3
-14 8 -14 11 0 31 15 21 31 32 19 12z"/>
<path d="M1800 1537 c-14 -7 -29 -25 -35 -41 -8 -25 -6 -31 18 -52 34 -29 51
-30 77 -4 34 34 23 76 -26 103 -5 3 -21 0 -34 -6z m45 -56 c-2 -19 -20 -25
-40 -14 -13 8 -13 11 2 30 12 15 20 18 29 9 6 -6 11 -17 9 -25z"/>
<path d="M1142 400 l-2 -95 111 -152 c104 -144 133 -177 123 -135 -4 14 -129
193 -177 252 -38 47 -46 72 -50 146 l-3 79 -2 -95z"/>
<path d="M1872 353 c-2 -22 -21 -50 -69 -100 -13 -13 -23 -28 -23 -34 0 -5 -7
-12 -15 -15 -8 -4 -15 -12 -15 -19 0 -6 -15 -27 -32 -46 -18 -19 -39 -46 -47
-61 -8 -15 -17 -25 -21 -23 -9 6 -23 -45 -15 -53 3 -3 12 3 19 14 8 10 51 66
98 124 124 156 130 165 125 202 -2 20 -4 24 -5 11z"/>
<path d="M1067 324 c-1 -1 -29 -5 -62 -8 -33 -3 -94 -13 -135 -21 -41 -9 -83
-17 -92 -18 -10 0 -18 -4 -18 -8 0 -3 -13 -6 -29 -7 -16 0 -43 -8 -60 -17 -18
-9 -36 -13 -40 -10 -5 3 -11 2 -13 -2 -1 -5 -25 -16 -53 -25 -67 -22 -119 -42
-125 -48 -5 -5 -34 -22 -99 -57 -19 -10 -44 -26 -55 -35 -11 -10 -23 -18 -28
-18 -4 0 -8 -7 -8 -15 0 -8 -4 -15 -10 -15 -5 0 -10 -5 -10 -10 0 -6 24 7 53
29 96 72 280 158 407 190 25 7 56 16 70 21 14 5 42 12 64 15 21 3 41 7 45 9 3
2 60 12 126 21 118 17 162 30 104 30 -16 1 -31 0 -32 -1z"/>
<path d="M1900 320 c0 -4 42 -13 93 -19 282 -38 549 -129 732 -250 40 -26 71
-42 68 -35 -3 8 -8 14 -12 14 -4 0 -21 13 -37 30 -16 16 -34 30 -41 30 -6 0
-13 3 -15 8 -7 15 -265 133 -293 133 -2 0 -19 5 -37 10 -89 26 -186 51 -208
54 -14 1 -68 9 -120 18 -102 16 -130 18 -130 7z"/>
</g>
</svg>
